<svg xmlns="http://www.w3.org/2000/svg" xmlns:xlink="http://www.w3.org/1999/xlink" width="0" height="0"
    style="position:absolute">

    <!-- source for free icons https://simpleicons.org/ -->

    <symbol id="icon-ship" viewBox="0 0 1000 1000">
        <g transform="translate(0.000000,511.000000) scale(0.100000,-0.100000)">
            <path d="M2720.6,4949.9l-58-58v-361.8v-361.8h849.6h849.6v419.8v419.8h-791.7h-791.7L2720.6,4949.9z" />
            <path d="M4781.7,4588.1v-419.8h1279.4h1279.4v361.8v361.8l-58,58l-58,58H6003.2H4781.7V4588.1z" />
            <path
                d="M1891,3692.4c-84-66-88-100-88-681.7V2449h639.7h639.7v639.7v639.7h-573.8C1992.9,3728.4,1928.9,3724.4,1891,3692.4z" />
            <path d="M3506.3,3094.7l6-635.7l635.7-6l633.7-4v639.7v639.7H4142h-639.7L3506.3,3094.7z" />
            <path d="M5221.5,3088.7V2449h419.8h419.8v639.7v639.7h-419.8h-419.8V3088.7z" />
            <path
                d="M6500.9,3088.7V2449h849.6h849.6v559.8c0,389.8-8,573.8-24,609.7c-48,107.9-68,110-905.6,110h-769.7V3088.7z" />
            <path
                d="M1803,1365.4c0-731.7,2-739.7,122-803.6l70-38l537.8,119.9l539.8,117.9l6,633.7l4,633.7h-639.7H1803V1365.4z" />
            <path
                d="M3502.3,1449.4c0-539.8,2-579.8,36-577.7c18,0,303.9,60,633.7,133.9l599.7,135.9l6,443.8l4,443.8H4142h-639.7V1449.4z" />
            <path d="M5225.5,1585.4l6-443.8l415.8-94l413.8-92v537.8v535.8h-419.8h-419.8L5225.5,1585.4z" />
            <path
                d="M6500.9,1443.4V857.7l757.7-167.9l755.7-165.9l68,38c116,68,117.9,76,117.9,803.6v663.7h-849.6h-849.6V1443.4z" />
            <path
                d="M3752.2,477.8C3092.4,331.9,2220.8,136,1813,46c-801.7-179.9-837.6-191.9-859.6-325.8c-10-46,124-395.8,607.7-1609.3c455.8-1133.5,613.7-1551.3,595.7-1563.3c-112-72-427.8-70-573.8,4c-52,26-189.9,145.9-329.9,287.9c-361.8,369.8-535.8,467.8-853.6,487.8c-171.9,10-173.9,10-233.9-52c-82-80-88-209.9-14-289.9c52-56,80-66,251.9-84c163.9-18,287.9-100,543.8-361.8c123.9-126,279.9-265.9,345.8-309.9c327.9-215.9,811.7-223.9,1139.5-16c56,34,221.9,183.9,371.8,329.9c323.9,319.9,389.8,355.9,627.7,355.9c247.9,2,333.9-48,655.7-373.8c233.9-237.9,281.9-277.9,433.8-349.9c269.9-132,519.8-151.9,811.6-62c183.9,56,345.8,173.9,613.7,445.8c299.9,301.9,367.9,339.9,613.7,339.9c243.9,0,311.9-38,619.7-343.9c395.8-393.8,587.8-493.8,959.6-491.8c357.9,2,555.8,108,921.6,483.8c261.9,271.9,365.9,337.9,561.8,357.9c201.9,18,275.9,84,275.9,237.9c0,52-16,88-62,132c-60,62-62,62-233.9,50c-325.9-18-477.8-105.9-853.6-485.8c-223.9-225.9-275.9-267.9-375.8-303.9c-163.9-62-423.8-56-527.8,12c-18,12,142,431.8,595.7,1571.3c617.7,1543.3,621.7,1553.3,595.8,1625.3c-16,40-50,87.9-78,107.9c-32,22-725.7,185.9-1993.1,465.8C5897.2,555.8,5005.6,749.7,4987.6,747.7C4967.6,747.7,4411.9,625.8,3752.2,477.8z M5119.6-141.9c104-74,102-48,102-1747.2v-1579.3l-52-20c-74-28-313.9-24-353.8,6c-32,22-34,133.9-30,1639.3l6,1617.3l66,58C4933.6-99.9,5043.6-89.9,5119.6-141.9z" />
            <path
                d="M231.7-3526.4c-117.9-52-165.9-227.9-88-325.9c48-62,117.9-90,261.9-101.9c173.9-16,263.9-76,557.8-371.8c367.8-369.8,547.8-461.8,909.6-461.8s541.8,92,909.6,461.8c339.9,343.8,383.8,367.8,649.7,367.8c181.9,0,207.9-4,303.9-58c60-32,199.9-155.9,335.8-293.9c363.8-371.9,517.8-455.8,855.6-473.8c403.8-20,581.7,64,981.6,459.8c341.8,339.8,389.8,365.8,651.7,365.8c263.9,0,315.9-28,655.7-367.8c225.9-225.9,299.9-287.9,417.8-347.8c191.9-94,331.8-122,565.7-110c333.9,18,501.8,111.9,869.6,485.8c133.9,135.9,277.9,263.9,325.8,287.9c46,24,145.9,50,221.9,60c74,10,155.9,28,177.9,40c118,64,139.9,221.9,46,325.8c-56,64-64,66-199.9,64c-179.9-4-379.8-66-531.8-165.9c-66-44-225.9-187.9-353.8-321.9c-293.9-301.9-379.8-349.8-635.7-349.8c-247.9,2-309.9,38-639.7,369.8c-239.9,241.9-289.9,283.9-439.8,355.8c-321.9,157.9-635.7,159.9-955.6,2c-145.9-72-199.9-114-439.8-355.9c-331.8-331.8-397.8-371.8-633.7-371.8c-257.9,0-311.9,30-659.7,369.8c-333.9,325.9-443.8,395.8-709.7,451.8c-267.9,56-571.7-2-791.7-151.9c-64-46-221.9-189.9-347.8-317.9c-299.9-307.9-379.8-351.8-629.7-351.8c-249.9,0-325.9,44-637.7,359.8c-263.9,267.9-397.8,365.8-581.7,425.8C511.6-3524.4,291.7-3502.4,231.7-3526.4z" />
        </g>
    </symbol>
</svg>
